<?xml version="1.0" ?><svg id="fill" viewBox="0 0 64 64" xmlns="http://www.w3.org/2000/svg"><rect height="14" style="fill:#cfcfd9" width="6" x="4" y="47"/><rect height="20" style="fill:#cfcfd9" width="6" x="14" y="41"/><rect height="26" style="fill:#cfcfd9" width="6" x="24" y="35"/><rect height="30" style="fill:#cfcfd9" width="6" x="34" y="31"/><rect height="35" style="fill:#cfcfd9" width="6" x="44" y="26"/><rect height="42" style="fill:#cfcfd9" width="6" x="54" y="19"/><rect height="40" style="fill:#d9dae2" width="4" x="54" y="19"/><rect height="33" style="fill:#d9dae2" width="4" x="44" y="26"/><rect height="28" style="fill:#d9dae2" width="4" x="34" y="31"/><rect height="24" style="fill:#d9dae2" width="4" x="24" y="35"/><rect height="18" style="fill:#d9dae2" width="4" x="14" y="41"/><rect height="12" style="fill:#d9dae2" width="4" x="4" y="47"/><polygon points="53 3 54.314 5.663 57.253 6.09 55.127 8.163 55.629 11.09 53 9.708 50.371 11.09 50.873 8.163 48.747 6.09 51.686 5.663 53 3" style="fill:#94c7f2"/><polygon points="38 11 41 14 34 21 21 21 6 36 9 39 23 25 36 25 44 17 47 20 47 11 38 11" style="fill:#0468ad"/><path d="M41,14l-7,7H21L6,36l3,3L23,25H36l5-5a4.242,4.242,0,0,0,0-6Z" style="fill:#027de5"/><polygon points="5 52 5 48 9 48 5 52" style="fill:#fff"/><polygon points="15 46 15 42 19 42 15 46" style="fill:#fff"/><polygon points="25 40 25 36 29 36 25 40" style="fill:#fff"/><polygon points="35 36 35 32 39 32 35 36" style="fill:#fff"/><polygon points="45 31 45 27 49 27 45 31" style="fill:#fff"/><polygon points="55 24 55 20 59 20 55 24" style="fill:#fff"/><path d="M10,62H4a1,1,0,0,1-1-1V47a1,1,0,0,1,1-1h6a1,1,0,0,1,1,1V61A1,1,0,0,1,10,62ZM5,60H9V48H5Z"/><path d="M20,62H14a1,1,0,0,1-1-1V41a1,1,0,0,1,1-1h6a1,1,0,0,1,1,1V61A1,1,0,0,1,20,62Zm-5-2h4V42H15Z"/><path d="M30,62H24a1,1,0,0,1-1-1V35a1,1,0,0,1,1-1h6a1,1,0,0,1,1,1V61A1,1,0,0,1,30,62Zm-5-2h4V36H25Z"/><path d="M40,62H34a1,1,0,0,1-1-1V31a1,1,0,0,1,1-1h6a1,1,0,0,1,1,1V61A1,1,0,0,1,40,62Zm-5-2h4V32H35Z"/><path d="M50,62H44a1,1,0,0,1-1-1V26a1,1,0,0,1,1-1h6a1,1,0,0,1,1,1V61A1,1,0,0,1,50,62Zm-5-2h4V27H45Z"/><path d="M60,62H54a1,1,0,0,1-1-1V19a1,1,0,0,1,1-1h6a1,1,0,0,1,1,1V61A1,1,0,0,1,60,62Zm-5-2h4V20H55Z"/><path d="M55.629,12.09a1.015,1.015,0,0,1-.466-.114L53,10.838l-2.163,1.138a1,1,0,0,1-1.451-1.055L49.8,8.512l-1.75-1.706A1,1,0,0,1,48.6,5.1l2.417-.352L52.1,2.558a1.04,1.04,0,0,1,1.792,0l1.083,2.191L57.4,5.1a1,1,0,0,1,.555,1.705L56.2,8.512l.413,2.409a1,1,0,0,1-.985,1.169ZM53,8.708a1,1,0,0,1,.466.115l.835.439-.159-.93a1,1,0,0,1,.287-.885l.675-.658-.933-.136a1,1,0,0,1-.753-.548L53,5.259l-.418.846a1,1,0,0,1-.753.548l-.933.136.675.658a1,1,0,0,1,.287.885l-.159.93.835-.439A1,1,0,0,1,53,8.708Z"/></svg>